<?xml version="1.0" standalone="no"?>
<!DOCTYPE svg PUBLIC "-//W3C//DTD SVG 20010904//EN"
 "http://www.w3.org/TR/2001/REC-SVG-20010904/DTD/svg10.dtd">
<svg version="1.0" xmlns="http://www.w3.org/2000/svg"
 width="64.000000pt" height="38.000000pt" viewBox="0 0 64.000000 38.000000"
 preserveAspectRatio="xMidYMid meet">

<g transform="translate(0.000000,38.000000) scale(0.100000,-0.100000)"
fill="#000000" stroke="none">
<path d="M238 347 c-81 -31 -218 -135 -218 -167 0 -21 100 -107 163 -141 55
-30 71 -34 137 -34 67 0 82 4 139 35 64 35 161 119 161 140 0 21 -97 105 -160
139 -73 39 -161 50 -222 28z m187 -56 c33 -15 80 -47 105 -70 l45 -41 -45 -41
c-60 -56 -152 -99 -210 -99 -58 0 -150 43 -210 99 l-45 41 45 41 c60 56 152
99 210 99 29 0 67 -10 105 -29z"/>
<path d="M271 266 c-87 -48 -50 -186 49 -186 51 0 100 49 100 99 0 75 -83 124
-149 87z m89 -46 c11 -11 20 -29 20 -40 0 -26 -34 -60 -60 -60 -26 0 -60 34
-60 60 0 11 9 29 20 40 11 11 29 20 40 20 11 0 29 -9 40 -20z"/>
</g>
</svg>
